<?xml version="1.0"?>
<svg xmlns="http://www.w3.org/2000/svg" xmlns:xlink="http://www.w3.org/1999/xlink" version="1.1" id="Capa_1" x="0px" y="0px" viewBox="0 0 411.212 411.212" style="enable-background:new 0 0 411.212 411.212;" xml:space="preserve" width="512px" height="512px" class=""><g><g>
	<g>
		<path d="M408.497,126.643c-0.394-1.3-1.29-2.386-2.488-3.026c-1.193-0.635-2.596-0.773-3.901-0.374l-163.261,49.813    l52.808-162.688c0.875-2.688-0.599-5.576-3.292-6.451c-15.677-5.089-32.399-3.758-47.089,3.722    c-14.684,7.491-25.574,20.245-30.659,35.927l-49.761,153.293l-80.195,24.463c-15.222-9.974-33.987-11.356-50.714-3.569    c-21.187,9.851-33.408,33.69-29.076,56.678c2.765,14.669,11.617,27.479,24.284,35.149c8.228,4.977,17.603,7.537,27.039,7.537    c5.105,0,10.23-0.748,15.206-2.268c14.915-4.547,26.737-15.258,32.773-29.594l35.507-10.834l-11.484,35.384    c-14.438,5.78-25.359,17.408-30.177,32.246c-4.301,13.251-3.185,27.387,3.144,39.793c6.328,12.416,17.116,21.622,30.367,25.917    c5.299,1.72,10.742,2.575,16.154,2.575c8.125,0,16.195-1.925,23.639-5.719c12.416-6.328,21.622-17.116,25.917-30.367    c4.813-14.838,2.801-30.669-5.484-43.832l25.6-79.708l154.127-47.032c15.765-4.808,28.713-15.468,36.46-30.019    C411.692,159.109,413.304,142.413,408.497,126.643z M220.352,46.725c4.244-13.076,13.327-23.716,25.574-29.962    c10.716-5.463,22.728-6.994,34.324-4.449l-53.356,164.393l-54.098,16.507L220.352,46.725z M177.257,329.636    c-0.492,1.521-0.241,3.185,0.681,4.5c7.619,10.906,9.651,24.376,5.571,36.956c-7.137,21.985-30.833,34.053-52.813,26.931    c-21.985-7.137-34.063-30.828-26.931-52.813c4.081-12.58,13.635-22.287,26.214-26.634c1.516-0.527,2.698-1.731,3.195-3.261    l14.454-44.539l53.811-16.42L177.257,329.636z M394.908,168.848c-6.467,12.14-17.265,21.028-30.413,25.047L94.815,276.178    c-1.536,0.466-2.76,1.628-3.313,3.133c-4.577,12.498-14.449,21.878-27.095,25.738c-11.382,3.477-23.767,1.935-33.951-4.239    c-10.337-6.252-17.265-16.292-19.523-28.278c-3.482-18.452,6.333-37.591,23.332-45.491c5.796-2.693,11.894-4.024,17.946-4.024    c8.653,0,17.198,2.724,24.576,8.074c1.3,0.942,2.964,1.213,4.5,0.748l318.674-97.234    C402.296,146.243,400.556,158.229,394.908,168.848z" data-original="#000000" class="active-path" data-old_color="#4a4a4a" fill="#4a4a4a"/>
	</g>
</g><g>
	<g>
		<path d="M77.325,257.541c-4.285-14.029-19.2-21.965-33.213-17.679c-14.029,4.28-21.96,19.18-17.679,33.213    c3.492,11.453,14.065,18.842,25.462,18.842c2.565,0,5.176-0.374,7.752-1.162C73.674,286.474,81.605,271.575,77.325,257.541z     M56.661,280.97c-8.627,2.616-17.797-2.248-20.434-10.88c-2.637-8.632,2.243-17.802,10.875-20.434    c1.587-0.481,3.185-0.712,4.767-0.712c7.009,0,13.517,4.547,15.672,11.592C70.172,269.169,65.293,278.339,56.661,280.97z" data-original="#000000" class="active-path" data-old_color="#4a4a4a" fill="#4a4a4a"/>
	</g>
</g><g>
	<g>
		<path d="M168.85,350.71c-2.068-6.794-6.666-12.38-12.938-15.718c-6.277-3.349-13.471-4.045-20.27-1.961    c-6.794,2.068-12.38,6.666-15.718,12.938c-3.338,6.272-4.035,13.471-1.961,20.27c2.074,6.794,6.671,12.38,12.938,15.718    c3.907,2.079,8.172,3.133,12.472,3.133c2.611,0,5.233-0.389,7.798-1.172c6.794-2.074,12.38-6.671,15.718-12.938    C170.227,364.703,170.924,357.504,168.85,350.71z M157.852,366.167c-2.053,3.86-5.489,6.687-9.672,7.967    c-4.188,1.27-8.612,0.845-12.467-1.208c-3.86-2.053-6.687-5.489-7.967-9.672c-1.275-4.178-0.845-8.612,1.208-12.467    c2.053-3.86,5.484-6.692,9.672-7.967c1.582-0.481,3.195-0.722,4.803-0.722c2.647,0,5.263,0.65,7.665,1.93    c3.86,2.053,6.692,5.483,7.967,9.672C160.335,357.878,159.905,362.307,157.852,366.167z" data-original="#000000" class="active-path" data-old_color="#4a4a4a" fill="#4a4a4a"/>
	</g>
</g><g>
	<g>
		<path d="M200.015,218.102c-1.736-3.405-4.685-5.924-8.315-7.107c-3.63-1.172-7.501-0.865-10.895,0.865    c-3.4,1.731-5.919,4.68-7.096,8.31c-1.172,3.625-0.87,7.496,0.865,10.895c2.514,4.941,7.542,7.793,12.744,7.793    c2.181,0,4.388-0.502,6.467-1.556C200.794,233.723,203.589,225.106,200.015,218.102z M189.135,228.183    c-1.992,1.009-4.424,0.225-5.437-1.761c-0.492-0.968-0.579-2.063-0.246-3.087s1.044-1.859,2.007-2.35    c0.579-0.297,1.203-0.445,1.833-0.445c0.42,0,0.84,0.072,1.249,0.2c1.024,0.333,1.859,1.044,2.35,2.017    C191.9,224.737,191.112,227.169,189.135,228.183z" data-original="#000000" class="active-path" data-old_color="#4a4a4a" fill="#4a4a4a"/>
	</g>
</g></g> </svg>
